<?xml version="1.0" encoding="UTF-8" standalone="no"?>
<!DOCTYPE svg PUBLIC "-//W3C//DTD SVG 1.1//EN"
 "http://www.w3.org/Graphics/SVG/1.1/DTD/svg11.dtd">
<!-- Generated by graphviz version 3.0.0 (20220226.1711)
 -->
<!-- Pages: 1 -->
<svg width="791pt" height="137pt"
 viewBox="0.00 0.00 790.50 136.95" xmlns="http://www.w3.org/2000/svg" xmlns:xlink="http://www.w3.org/1999/xlink">
<g id="graph0" class="graph" transform="scale(1 1) rotate(0) translate(4 132.95)">
<polygon fill="white" stroke="transparent" points="-4,4 -4,-132.95 786.5,-132.95 786.5,4 -4,4"/>
<!-- A -->
<g id="node1" class="node">
<title>A</title>
<polygon fill="lightgray" stroke="black" points="23,-128.95 0,-128.95 0,-110.95 23,-110.95 23,-128.95"/>
<text text-anchor="middle" x="11.5" y="-117.75" font-family="Times New Roman,serif" font-size="9.00">A</text>
</g>
<!-- A XOR B -->
<g id="node19" class="node">
<title>A XOR B</title>
<ellipse fill="lightblue" stroke="black" cx="331.5" cy="-37.48" rx="37.45" ry="37.45"/>
<text text-anchor="middle" x="331.5" y="-35.28" font-family="Times New Roman,serif" font-size="9.00">A XOR B</text>
</g>
<!-- A&#45;&gt;A XOR B -->
<g id="edge1" class="edge">
<title>A&#45;&gt;A XOR B</title>
<path fill="none" stroke="green" stroke-width="0.2" d="M23.4,-114.12C26.35,-113.01 29.52,-111.88 32.5,-110.95 120.51,-83.64 225.69,-60.23 284.93,-47.86"/>
<polygon fill="green" stroke="green" stroke-width="0.2" points="285.65,-51.28 294.73,-45.82 284.23,-44.43 285.65,-51.28"/>
</g>
<!-- B -->
<g id="node2" class="node">
<title>B</title>
<polygon fill="lightgray" stroke="black" points="740,-128.95 717,-128.95 717,-110.95 740,-110.95 740,-128.95"/>
<text text-anchor="middle" x="728.5" y="-117.75" font-family="Times New Roman,serif" font-size="9.00">B</text>
</g>
<!-- &#45;3 -->
<g id="node3" class="node">
<title>&#45;3</title>
<polygon fill="lightgray" stroke="black" points="65.5,-128.95 41.5,-128.95 41.5,-110.95 65.5,-110.95 65.5,-128.95"/>
<text text-anchor="middle" x="53.5" y="-117.75" font-family="Times New Roman,serif" font-size="9.00">&#45;3</text>
</g>
<!-- &#45;3&#45;&gt;A XOR B -->
<g id="edge2" class="edge">
<title>&#45;3&#45;&gt;A XOR B</title>
<path fill="none" stroke="green" stroke-width="0.3" d="M65.87,-114.03C68.69,-112.97 71.68,-111.88 74.5,-110.95 147.33,-86.87 233.38,-63.64 285.13,-50.22"/>
<polygon fill="green" stroke="green" stroke-width="0.3" points="286.21,-53.56 295.01,-47.67 284.46,-46.78 286.21,-53.56"/>
</g>
<!-- &#45;4 -->
<g id="node4" class="node">
<title>&#45;4</title>
<polygon fill="lightgray" stroke="black" points="107.5,-128.95 83.5,-128.95 83.5,-110.95 107.5,-110.95 107.5,-128.95"/>
<text text-anchor="middle" x="95.5" y="-117.75" font-family="Times New Roman,serif" font-size="9.00">&#45;4</text>
</g>
<!-- &#45;4&#45;&gt;A XOR B -->
<g id="edge3" class="edge">
<title>&#45;4&#45;&gt;A XOR B</title>
<path fill="none" stroke="red" stroke-width="0.6" d="M107.91,-114.14C110.72,-113.07 113.71,-111.95 116.5,-110.95 174.8,-90.03 242.6,-67.47 286.23,-53.17"/>
<polygon fill="red" stroke="red" stroke-width="0.6" points="287.56,-56.42 295.97,-49.98 285.38,-49.77 287.56,-56.42"/>
</g>
<!-- &#45;5 -->
<g id="node5" class="node">
<title>&#45;5</title>
<polygon fill="lightgray" stroke="black" points="149.5,-128.95 125.5,-128.95 125.5,-110.95 149.5,-110.95 149.5,-128.95"/>
<text text-anchor="middle" x="137.5" y="-117.75" font-family="Times New Roman,serif" font-size="9.00">&#45;5</text>
</g>
<!-- &#45;5&#45;&gt;A XOR B -->
<g id="edge4" class="edge">
<title>&#45;5&#45;&gt;A XOR B</title>
<path fill="none" stroke="green" stroke-width="0.46" d="M149.64,-113.92C176.68,-102.7 243.04,-75.17 287.67,-56.66"/>
<polygon fill="green" stroke="green" stroke-width="0.46" points="289.22,-59.8 297.12,-52.74 286.54,-53.34 289.22,-59.8"/>
</g>
<!-- &#45;6 -->
<g id="node6" class="node">
<title>&#45;6</title>
<polygon fill="lightgray" stroke="black" points="782.5,-128.95 758.5,-128.95 758.5,-110.95 782.5,-110.95 782.5,-128.95"/>
<text text-anchor="middle" x="770.5" y="-117.75" font-family="Times New Roman,serif" font-size="9.00">&#45;6</text>
</g>
<!-- &#45;7 -->
<g id="node7" class="node">
<title>&#45;7</title>
<polygon fill="lightgray" stroke="black" points="191.5,-128.95 167.5,-128.95 167.5,-110.95 191.5,-110.95 191.5,-128.95"/>
<text text-anchor="middle" x="179.5" y="-117.75" font-family="Times New Roman,serif" font-size="9.00">&#45;7</text>
</g>
<!-- &#45;7&#45;&gt;A XOR B -->
<g id="edge5" class="edge">
<title>&#45;7&#45;&gt;A XOR B</title>
<path fill="none" stroke="red" stroke-width="0.14" d="M191.68,-112.5C212.67,-101.39 256.59,-78.14 289.64,-60.64"/>
<polygon fill="red" stroke="red" stroke-width="0.14" points="291.44,-63.65 298.64,-55.87 288.17,-57.46 291.44,-63.65"/>
</g>
<!-- &#45;8 -->
<g id="node8" class="node">
<title>&#45;8</title>
<polygon fill="lightgray" stroke="black" points="233.5,-128.95 209.5,-128.95 209.5,-110.95 233.5,-110.95 233.5,-128.95"/>
<text text-anchor="middle" x="221.5" y="-117.75" font-family="Times New Roman,serif" font-size="9.00">&#45;8</text>
</g>
<!-- &#45;8&#45;&gt;A XOR B -->
<g id="edge6" class="edge">
<title>&#45;8&#45;&gt;A XOR B</title>
<path fill="none" stroke="green" stroke-width="0.76" d="M232.45,-110.94C246.55,-100.62 271.81,-82.14 293.29,-66.43"/>
<polygon fill="green" stroke="green" stroke-width="0.76" points="295.61,-69.07 301.61,-60.34 291.47,-63.42 295.61,-69.07"/>
</g>
<!-- &#45;9 -->
<g id="node9" class="node">
<title>&#45;9</title>
<polygon fill="lightgray" stroke="black" points="275.5,-128.95 251.5,-128.95 251.5,-110.95 275.5,-110.95 275.5,-128.95"/>
<text text-anchor="middle" x="263.5" y="-117.75" font-family="Times New Roman,serif" font-size="9.00">&#45;9</text>
</g>
<!-- &#45;9&#45;&gt;A XOR B -->
<g id="edge7" class="edge">
<title>&#45;9&#45;&gt;A XOR B</title>
<path fill="none" stroke="green" stroke-width="0.23" d="M270.27,-110.94C277.51,-102.37 289.52,-88.16 300.99,-74.58"/>
<polygon fill="green" stroke="green" stroke-width="0.23" points="303.86,-76.61 307.64,-66.71 298.51,-72.09 303.86,-76.61"/>
</g>
<!-- &#45;10 -->
<g id="node10" class="node">
<title>&#45;10</title>
<polygon fill="lightgray" stroke="black" points="323,-128.95 294,-128.95 294,-110.95 323,-110.95 323,-128.95"/>
<text text-anchor="middle" x="308.5" y="-117.75" font-family="Times New Roman,serif" font-size="9.00">&#45;10</text>
</g>
<!-- &#45;10&#45;&gt;A XOR B -->
<g id="edge8" class="edge">
<title>&#45;10&#45;&gt;A XOR B</title>
<path fill="none" stroke="green" stroke-width="0.24" d="M310.79,-110.94C312.7,-104.25 315.6,-94.11 318.62,-83.53"/>
<polygon fill="green" stroke="green" stroke-width="0.24" points="322.03,-84.34 321.41,-73.77 315.3,-82.42 322.03,-84.34"/>
</g>
<!-- &#45;11 -->
<g id="node11" class="node">
<title>&#45;11</title>
<polygon fill="lightgray" stroke="black" points="370,-128.95 341,-128.95 341,-110.95 370,-110.95 370,-128.95"/>
<text text-anchor="middle" x="355.5" y="-117.75" font-family="Times New Roman,serif" font-size="9.00">&#45;11</text>
</g>
<!-- &#45;11&#45;&gt;A XOR B -->
<g id="edge9" class="edge">
<title>&#45;11&#45;&gt;A XOR B</title>
<path fill="none" stroke="green" stroke-width="0.15" stroke-dasharray="1,5" d="M353.11,-110.94C351.11,-104.25 348.09,-94.11 344.94,-83.53"/>
<polygon fill="green" stroke="green" stroke-width="0.15" points="348.24,-82.35 342.02,-73.77 341.53,-84.35 348.24,-82.35"/>
</g>
<!-- &#45;12 -->
<g id="node12" class="node">
<title>&#45;12</title>
<polygon fill="lightgray" stroke="black" points="417,-128.95 388,-128.95 388,-110.95 417,-110.95 417,-128.95"/>
<text text-anchor="middle" x="402.5" y="-117.75" font-family="Times New Roman,serif" font-size="9.00">&#45;12</text>
</g>
<!-- &#45;12&#45;&gt;A XOR B -->
<g id="edge10" class="edge">
<title>&#45;12&#45;&gt;A XOR B</title>
<path fill="none" stroke="red" stroke-width="0.37" d="M395.43,-110.94C387.74,-102.22 374.9,-87.67 362.74,-73.89"/>
<polygon fill="red" stroke="red" stroke-width="0.37" points="365.33,-71.53 356.09,-66.35 360.08,-76.16 365.33,-71.53"/>
</g>
<!-- &#45;13 -->
<g id="node13" class="node">
<title>&#45;13</title>
<polygon fill="lightgray" stroke="black" points="464,-128.95 435,-128.95 435,-110.95 464,-110.95 464,-128.95"/>
<text text-anchor="middle" x="449.5" y="-117.75" font-family="Times New Roman,serif" font-size="9.00">&#45;13</text>
</g>
<!-- &#45;13&#45;&gt;A XOR B -->
<g id="edge11" class="edge">
<title>&#45;13&#45;&gt;A XOR B</title>
<path fill="none" stroke="red" stroke-width="0.46" d="M437.75,-110.94C422.18,-100.32 393.92,-81.05 370.46,-65.05"/>
<polygon fill="red" stroke="red" stroke-width="0.46" points="372.3,-62.07 362.07,-59.33 368.36,-67.85 372.3,-62.07"/>
</g>
<!-- &#45;14 -->
<g id="node14" class="node">
<title>&#45;14</title>
<polygon fill="lightgray" stroke="black" points="511,-128.95 482,-128.95 482,-110.95 511,-110.95 511,-128.95"/>
<text text-anchor="middle" x="496.5" y="-117.75" font-family="Times New Roman,serif" font-size="9.00">&#45;14</text>
</g>
<!-- &#45;14&#45;&gt;A XOR B -->
<g id="edge12" class="edge">
<title>&#45;14&#45;&gt;A XOR B</title>
<path fill="none" stroke="green" stroke-width="0.21" d="M481.86,-111.81C457.89,-100.12 409.42,-76.48 373.96,-59.19"/>
<polygon fill="green" stroke="green" stroke-width="0.21" points="375.32,-55.96 364.8,-54.72 372.25,-62.25 375.32,-55.96"/>
</g>
<!-- &#45;15 -->
<g id="node15" class="node">
<title>&#45;15</title>
<polygon fill="lightgray" stroke="black" points="558,-128.95 529,-128.95 529,-110.95 558,-110.95 558,-128.95"/>
<text text-anchor="middle" x="543.5" y="-117.75" font-family="Times New Roman,serif" font-size="9.00">&#45;15</text>
</g>
<!-- &#45;15&#45;&gt;A XOR B -->
<g id="edge13" class="edge">
<title>&#45;15&#45;&gt;A XOR B</title>
<path fill="none" stroke="red" stroke-width="0.31" d="M528.93,-113.42C497.86,-101.63 424.02,-73.6 375.98,-55.36"/>
<polygon fill="red" stroke="red" stroke-width="0.31" points="377.03,-52.02 366.44,-51.74 374.55,-58.56 377.03,-52.02"/>
</g>
<!-- &#45;16 -->
<g id="node16" class="node">
<title>&#45;16</title>
<polygon fill="lightgray" stroke="black" points="605,-128.95 576,-128.95 576,-110.95 605,-110.95 605,-128.95"/>
<text text-anchor="middle" x="590.5" y="-117.75" font-family="Times New Roman,serif" font-size="9.00">&#45;16</text>
</g>
<!-- &#45;16&#45;&gt;A XOR B -->
<g id="edge14" class="edge">
<title>&#45;16&#45;&gt;A XOR B</title>
<path fill="none" stroke="red" stroke-width="0.22" d="M575.93,-113.79C573.14,-112.83 570.23,-111.85 567.5,-110.95 501.52,-89.36 424.55,-66.07 376.92,-51.88"/>
<polygon fill="red" stroke="red" stroke-width="0.22" points="377.8,-48.49 367.21,-49 375.8,-55.2 377.8,-48.49"/>
</g>
<!-- &#45;17 -->
<g id="node17" class="node">
<title>&#45;17</title>
<polygon fill="lightgray" stroke="black" points="652,-128.95 623,-128.95 623,-110.95 652,-110.95 652,-128.95"/>
<text text-anchor="middle" x="637.5" y="-117.75" font-family="Times New Roman,serif" font-size="9.00">&#45;17</text>
</g>
<!-- &#45;17&#45;&gt;A XOR B -->
<g id="edge15" class="edge">
<title>&#45;17&#45;&gt;A XOR B</title>
<path fill="none" stroke="red" stroke-width="0.37" d="M622.96,-113.69C620.17,-112.74 617.25,-111.78 614.5,-110.95 531.98,-86.08 434.33,-62.3 377.98,-49.11"/>
<polygon fill="red" stroke="red" stroke-width="0.37" points="378.49,-45.64 367.95,-46.78 376.9,-52.46 378.49,-45.64"/>
</g>
<!-- &#45;18 -->
<g id="node18" class="node">
<title>&#45;18</title>
<polygon fill="lightgray" stroke="black" points="699,-128.95 670,-128.95 670,-110.95 699,-110.95 699,-128.95"/>
<text text-anchor="middle" x="684.5" y="-117.75" font-family="Times New Roman,serif" font-size="9.00">&#45;18</text>
</g>
<!-- &#45;18&#45;&gt;A XOR B -->
<g id="edge16" class="edge">
<title>&#45;18&#45;&gt;A XOR B</title>
<path fill="none" stroke="green" stroke-width="0.23" d="M669.98,-113.61C667.19,-112.67 664.27,-111.74 661.5,-110.95 561.84,-82.79 442.68,-59 378.33,-46.95"/>
<polygon fill="green" stroke="green" stroke-width="0.23" points="378.95,-43.5 368.48,-45.11 377.67,-50.38 378.95,-43.5"/>
</g>
</g>
</svg>
